<?xml version="1.0" encoding="UTF-8"?><svg id="Layer_1" xmlns="http://www.w3.org/2000/svg" viewBox="0 0 50 50"><defs><style>.cls-1{fill:#ffbe2b;}.cls-2{fill:#373535;}</style></defs><rect class="cls-1" width="50" height="50"/><path class="cls-2" d="m19.43,19.07c-.11-1.1-.58-1.95-1.4-2.56-.83-.61-1.95-.91-3.36-.91-.96,0-1.77.13-2.44.4-.66.27-1.17.64-1.52,1.11-.35.47-.52,1.01-.52,1.61-.02.5.09.93.32,1.31s.55.69.96.96.88.5,1.42.69c.54.2,1.11.36,1.71.5l2.5.6c1.22.27,2.33.64,3.35,1.09s1.9,1.01,2.64,1.67c.74.66,1.32,1.44,1.74,2.34.41.9.62,1.93.63,3.09,0,1.71-.44,3.18-1.3,4.43-.86,1.25-2.09,2.21-3.7,2.9-1.61.68-3.55,1.03-5.82,1.03s-4.21-.34-5.87-1.03-2.96-1.71-3.89-3.07-1.42-3.04-1.46-5.04h5.7c.06.93.33,1.71.81,2.33.48.62,1.12,1.09,1.92,1.4.8.31,1.71.47,2.73.47s1.87-.14,2.61-.44c.74-.29,1.31-.69,1.72-1.21.41-.52.61-1.11.61-1.78,0-.63-.18-1.15-.55-1.58-.37-.43-.9-.79-1.61-1.09-.7-.3-1.56-.57-2.58-.82l-3.04-.76c-2.35-.57-4.21-1.47-5.57-2.68s-2.04-2.85-2.03-4.91c0-1.69.44-3.16,1.35-4.42.91-1.26,2.17-2.25,3.76-2.95,1.6-.71,3.41-1.06,5.44-1.06s3.88.35,5.42,1.06c1.55.71,2.75,1.69,3.61,2.95.86,1.26,1.31,2.72,1.33,4.38h-5.65Z"/><path class="cls-2" d="m40.76,11.06h5.83v19.44c0,1.8-.4,3.36-1.21,4.68-.8,1.33-1.92,2.35-3.34,3.06-1.42.72-3.08,1.08-4.97,1.08-1.68,0-3.2-.3-4.57-.89-1.37-.59-2.45-1.5-3.25-2.72-.8-1.22-1.19-2.76-1.18-4.61h5.87c.02.74.17,1.36.46,1.89.29.52.68.92,1.18,1.2.5.28,1.1.42,1.79.42.73,0,1.34-.16,1.84-.47.5-.31.89-.77,1.15-1.38.26-.61.39-1.36.39-2.25V11.06Z"/></svg>